<svg id="visual" viewBox="0 0 300 50" width="300" height="50" xmlns="http://www.w3.org/2000/svg" xmlns:xlink="http://www.w3.org/1999/xlink" version="1.1"><rect x="0" y="0" width="300" height="50" fill="#001220"></rect><path d="M0 36L7.2 35.8C14.3 35.7 28.7 35.3 43 34.2C57.3 33 71.7 31 86 30C100.3 29 114.7 29 128.8 29C143 29 157 29 171.2 29.3C185.3 29.7 199.7 30.3 214 31.2C228.3 32 242.7 33 257 32.7C271.3 32.3 285.7 30.7 292.8 29.8L300 29L300 51L292.8 51C285.7 51 271.3 51 257 51C242.7 51 228.3 51 214 51C199.7 51 185.3 51 171.2 51C157 51 143 51 128.8 51C114.7 51 100.3 51 86 51C71.7 51 57.3 51 43 51C28.7 51 14.3 51 7.2 51L0 51Z" fill="#fa7268"></path><path d="M0 35L7.2 35.5C14.3 36 28.7 37 43 37C57.3 37 71.7 36 86 35.7C100.3 35.3 114.7 35.7 128.8 35.8C143 36 157 36 171.2 35.3C185.3 34.7 199.7 33.3 214 33C228.3 32.7 242.7 33.3 257 33.8C271.3 34.3 285.7 34.7 292.8 34.8L300 35L300 51L292.8 51C285.7 51 271.3 51 257 51C242.7 51 228.3 51 214 51C199.7 51 185.3 51 171.2 51C157 51 143 51 128.8 51C114.7 51 100.3 51 86 51C71.7 51 57.3 51 43 51C28.7 51 14.3 51 7.2 51L0 51Z" fill="#ef5f67"></path><path d="M0 40L7.2 39.7C14.3 39.3 28.7 38.7 43 38.7C57.3 38.7 71.7 39.3 86 39.2C100.3 39 114.7 38 128.8 37.3C143 36.7 157 36.3 171.2 36.7C185.3 37 199.7 38 214 38.7C228.3 39.3 242.7 39.7 257 39.8C271.3 40 285.7 40 292.8 40L300 40L300 51L292.8 51C285.7 51 271.3 51 257 51C242.7 51 228.3 51 214 51C199.7 51 185.3 51 171.2 51C157 51 143 51 128.8 51C114.7 51 100.3 51 86 51C71.7 51 57.3 51 43 51C28.7 51 14.3 51 7.2 51L0 51Z" fill="#e34c67"></path><path d="M0 43L7.2 43.2C14.3 43.3 28.7 43.7 43 43.7C57.3 43.7 71.7 43.3 86 42.7C100.3 42 114.7 41 128.8 40.7C143 40.3 157 40.7 171.2 40.8C185.3 41 199.7 41 214 40.8C228.3 40.7 242.7 40.3 257 40C271.3 39.7 285.7 39.3 292.8 39.2L300 39L300 51L292.8 51C285.7 51 271.3 51 257 51C242.7 51 228.3 51 214 51C199.7 51 185.3 51 171.2 51C157 51 143 51 128.8 51C114.7 51 100.3 51 86 51C71.7 51 57.3 51 43 51C28.7 51 14.3 51 7.2 51L0 51Z" fill="#d53867"></path><path d="M0 44L7.2 44.3C14.3 44.7 28.7 45.3 43 45.5C57.3 45.7 71.7 45.3 86 45.2C100.3 45 114.7 45 128.8 45C143 45 157 45 171.2 45C185.3 45 199.7 45 214 45C228.3 45 242.7 45 257 45.2C271.3 45.3 285.7 45.7 292.8 45.8L300 46L300 51L292.8 51C285.7 51 271.3 51 257 51C242.7 51 228.3 51 214 51C199.7 51 185.3 51 171.2 51C157 51 143 51 128.8 51C114.7 51 100.3 51 86 51C71.7 51 57.3 51 43 51C28.7 51 14.3 51 7.2 51L0 51Z" fill="#c62368"></path></svg>