<svg id="visual" viewBox="0 0 300 50" width="300" height="50" xmlns="http://www.w3.org/2000/svg" xmlns:xlink="http://www.w3.org/1999/xlink" version="1.1"><rect x="0" y="0" width="300" height="50" fill="#001220"></rect><path d="M0 34L7.2 33C14.3 32 28.7 30 43 29.7C57.3 29.3 71.7 30.7 86 32C100.3 33.3 114.7 34.7 128.8 35.3C143 36 157 36 171.2 35.5C185.3 35 199.7 34 214 33.8C228.3 33.7 242.7 34.3 257 33.7C271.3 33 285.7 31 292.8 30L300 29L300 51L292.8 51C285.7 51 271.3 51 257 51C242.7 51 228.3 51 214 51C199.7 51 185.3 51 171.2 51C157 51 143 51 128.8 51C114.7 51 100.3 51 86 51C71.7 51 57.3 51 43 51C28.7 51 14.3 51 7.2 51L0 51Z" fill="#fa7268"></path><path d="M0 35L7.2 35C14.3 35 28.7 35 43 34.7C57.3 34.3 71.7 33.7 86 34C100.3 34.3 114.7 35.7 128.8 35.7C143 35.7 157 34.3 171.2 34.7C185.3 35 199.7 37 214 38C228.3 39 242.7 39 257 37.8C271.3 36.7 285.7 34.3 292.8 33.2L300 32L300 51L292.8 51C285.7 51 271.3 51 257 51C242.7 51 228.3 51 214 51C199.7 51 185.3 51 171.2 51C157 51 143 51 128.8 51C114.7 51 100.3 51 86 51C71.7 51 57.3 51 43 51C28.7 51 14.3 51 7.2 51L0 51Z" fill="#ef5f67"></path><path d="M0 37L7.2 37C14.3 37 28.7 37 43 37.5C57.3 38 71.7 39 86 39.7C100.3 40.3 114.7 40.7 128.8 39.8C143 39 157 37 171.2 36.5C185.3 36 199.7 37 214 37.5C228.3 38 242.7 38 257 38C271.3 38 285.7 38 292.8 38L300 38L300 51L292.8 51C285.7 51 271.3 51 257 51C242.7 51 228.3 51 214 51C199.7 51 185.3 51 171.2 51C157 51 143 51 128.8 51C114.7 51 100.3 51 86 51C71.7 51 57.3 51 43 51C28.7 51 14.3 51 7.2 51L0 51Z" fill="#e34c67"></path><path d="M0 41L7.2 40.7C14.3 40.3 28.7 39.7 43 40C57.3 40.3 71.7 41.7 86 42C100.3 42.3 114.7 41.7 128.8 41.2C143 40.7 157 40.3 171.2 40.5C185.3 40.7 199.7 41.3 214 41.3C228.3 41.3 242.7 40.7 257 40.5C271.3 40.3 285.7 40.7 292.8 40.8L300 41L300 51L292.8 51C285.7 51 271.3 51 257 51C242.7 51 228.3 51 214 51C199.7 51 185.3 51 171.2 51C157 51 143 51 128.8 51C114.7 51 100.3 51 86 51C71.7 51 57.3 51 43 51C28.7 51 14.3 51 7.2 51L0 51Z" fill="#d53867"></path><path d="M0 43L7.2 43.3C14.3 43.7 28.7 44.3 43 44.7C57.3 45 71.7 45 86 45C100.3 45 114.7 45 128.8 45.3C143 45.7 157 46.3 171.2 46.5C185.3 46.7 199.7 46.3 214 45.7C228.3 45 242.7 44 257 43.7C271.3 43.3 285.7 43.7 292.8 43.8L300 44L300 51L292.8 51C285.7 51 271.3 51 257 51C242.7 51 228.3 51 214 51C199.7 51 185.3 51 171.2 51C157 51 143 51 128.8 51C114.7 51 100.3 51 86 51C71.7 51 57.3 51 43 51C28.7 51 14.3 51 7.2 51L0 51Z" fill="#c62368"></path></svg>