<svg id="visual" viewBox="0 0 300 50" width="300" height="50" xmlns="http://www.w3.org/2000/svg" xmlns:xlink="http://www.w3.org/1999/xlink" version="1.1"><rect x="0" y="0" width="300" height="50" fill="#001220"></rect><path d="M0 31L7.2 31C14.3 31 28.7 31 43 31.8C57.3 32.7 71.7 34.3 86 34C100.3 33.7 114.7 31.3 128.8 31C143 30.7 157 32.3 171.2 33.2C185.3 34 199.7 34 214 33.3C228.3 32.7 242.7 31.3 257 31C271.3 30.7 285.7 31.3 292.8 31.7L300 32L300 51L292.8 51C285.7 51 271.3 51 257 51C242.7 51 228.3 51 214 51C199.7 51 185.3 51 171.2 51C157 51 143 51 128.8 51C114.7 51 100.3 51 86 51C71.7 51 57.3 51 43 51C28.7 51 14.3 51 7.2 51L0 51Z" fill="#fa7268"></path><path d="M0 38L7.2 37.8C14.3 37.7 28.7 37.3 43 36.3C57.3 35.3 71.7 33.7 86 33C100.3 32.3 114.7 32.7 128.8 33.3C143 34 157 35 171.2 34.8C185.3 34.7 199.7 33.3 214 33.2C228.3 33 242.7 34 257 34.5C271.3 35 285.7 35 292.8 35L300 35L300 51L292.8 51C285.7 51 271.3 51 257 51C242.7 51 228.3 51 214 51C199.7 51 185.3 51 171.2 51C157 51 143 51 128.8 51C114.7 51 100.3 51 86 51C71.7 51 57.3 51 43 51C28.7 51 14.3 51 7.2 51L0 51Z" fill="#ef5f67"></path><path d="M0 37L7.2 37C14.3 37 28.7 37 43 37.7C57.3 38.3 71.7 39.7 86 39.7C100.3 39.7 114.7 38.3 128.8 38.3C143 38.3 157 39.7 171.2 40C185.3 40.3 199.7 39.7 214 39.3C228.3 39 242.7 39 257 39.3C271.3 39.7 285.7 40.3 292.8 40.7L300 41L300 51L292.8 51C285.7 51 271.3 51 257 51C242.7 51 228.3 51 214 51C199.7 51 185.3 51 171.2 51C157 51 143 51 128.8 51C114.7 51 100.3 51 86 51C71.7 51 57.3 51 43 51C28.7 51 14.3 51 7.2 51L0 51Z" fill="#e34c67"></path><path d="M0 44L7.2 43.7C14.3 43.3 28.7 42.7 43 42.5C57.3 42.3 71.7 42.7 86 42.7C100.3 42.7 114.7 42.3 128.8 41.8C143 41.3 157 40.7 171.2 40.5C185.3 40.3 199.7 40.7 214 40.8C228.3 41 242.7 41 257 41.2C271.3 41.3 285.7 41.7 292.8 41.8L300 42L300 51L292.8 51C285.7 51 271.3 51 257 51C242.7 51 228.3 51 214 51C199.7 51 185.3 51 171.2 51C157 51 143 51 128.8 51C114.7 51 100.3 51 86 51C71.7 51 57.3 51 43 51C28.7 51 14.3 51 7.2 51L0 51Z" fill="#d53867"></path><path d="M0 43L7.2 43.5C14.3 44 28.7 45 43 45.2C57.3 45.3 71.7 44.7 86 44.5C100.3 44.3 114.7 44.7 128.8 45.2C143 45.7 157 46.3 171.2 46.2C185.3 46 199.7 45 214 44.8C228.3 44.7 242.7 45.3 257 45.7C271.3 46 285.7 46 292.8 46L300 46L300 51L292.8 51C285.7 51 271.3 51 257 51C242.7 51 228.3 51 214 51C199.7 51 185.3 51 171.2 51C157 51 143 51 128.8 51C114.7 51 100.3 51 86 51C71.7 51 57.3 51 43 51C28.7 51 14.3 51 7.2 51L0 51Z" fill="#c62368"></path></svg>