<svg id="visual" viewBox="0 0 300 50" width="300" height="50" xmlns="http://www.w3.org/2000/svg" xmlns:xlink="http://www.w3.org/1999/xlink" version="1.1"><rect x="0" y="0" width="300" height="50" fill="#e6e6e6"></rect><path d="M0 32L7.2 31.8C14.3 31.7 28.7 31.3 43 31.3C57.3 31.3 71.7 31.7 86 31.7C100.3 31.7 114.7 31.3 128.8 31.2C143 31 157 31 171.2 31.2C185.3 31.3 199.7 31.7 214 32C228.3 32.3 242.7 32.7 257 32.7C271.3 32.7 285.7 32.3 292.8 32.2L300 32L300 51L292.8 51C285.7 51 271.3 51 257 51C242.7 51 228.3 51 214 51C199.7 51 185.3 51 171.2 51C157 51 143 51 128.8 51C114.7 51 100.3 51 86 51C71.7 51 57.3 51 43 51C28.7 51 14.3 51 7.2 51L0 51Z" fill="#c62368"></path><path d="M0 36L7.2 35.7C14.3 35.3 28.7 34.7 43 34.5C57.3 34.3 71.7 34.7 86 35.2C100.3 35.7 114.7 36.3 128.8 36.3C143 36.3 157 35.7 171.2 35.3C185.3 35 199.7 35 214 35C228.3 35 242.7 35 257 35C271.3 35 285.7 35 292.8 35L300 35L300 51L292.8 51C285.7 51 271.3 51 257 51C242.7 51 228.3 51 214 51C199.7 51 185.3 51 171.2 51C157 51 143 51 128.8 51C114.7 51 100.3 51 86 51C71.7 51 57.3 51 43 51C28.7 51 14.3 51 7.2 51L0 51Z" fill="#d53867"></path><path d="M0 39L7.2 39.2C14.3 39.3 28.7 39.7 43 39.5C57.3 39.3 71.7 38.7 86 38.7C100.3 38.7 114.7 39.3 128.8 39.3C143 39.3 157 38.7 171.2 38.5C185.3 38.3 199.7 38.7 214 38.7C228.3 38.7 242.7 38.3 257 38.2C271.3 38 285.7 38 292.8 38L300 38L300 51L292.8 51C285.7 51 271.3 51 257 51C242.7 51 228.3 51 214 51C199.7 51 185.3 51 171.2 51C157 51 143 51 128.8 51C114.7 51 100.3 51 86 51C71.7 51 57.3 51 43 51C28.7 51 14.3 51 7.2 51L0 51Z" fill="#e34c67"></path><path d="M0 42L7.2 42.2C14.3 42.3 28.7 42.7 43 42.8C57.3 43 71.7 43 86 42.7C100.3 42.3 114.7 41.7 128.8 41.7C143 41.7 157 42.3 171.2 42.5C185.3 42.7 199.7 42.3 214 42.2C228.3 42 242.7 42 257 42.2C271.3 42.3 285.7 42.7 292.8 42.8L300 43L300 51L292.8 51C285.7 51 271.3 51 257 51C242.7 51 228.3 51 214 51C199.7 51 185.3 51 171.2 51C157 51 143 51 128.8 51C114.7 51 100.3 51 86 51C71.7 51 57.3 51 43 51C28.7 51 14.3 51 7.2 51L0 51Z" fill="#ef5f67"></path><path d="M0 47L7.2 46.7C14.3 46.3 28.7 45.7 43 45.3C57.3 45 71.7 45 86 45.2C100.3 45.3 114.7 45.7 128.8 46C143 46.3 157 46.7 171.2 46.7C185.3 46.7 199.7 46.3 214 46C228.3 45.7 242.7 45.3 257 45.2C271.3 45 285.7 45 292.8 45L300 45L300 51L292.8 51C285.7 51 271.3 51 257 51C242.7 51 228.3 51 214 51C199.7 51 185.3 51 171.2 51C157 51 143 51 128.8 51C114.7 51 100.3 51 86 51C71.7 51 57.3 51 43 51C28.7 51 14.3 51 7.2 51L0 51Z" fill="#fa7268"></path></svg>